/* XPM */
static char * close_inactive_xpm[] = {
"20 24 7 1",
" 	c None",
".	c #DEDEDE",
"+	c #BFBFBF",
"@	c #CFCFCF",
"#	c #ECECEC",
"$	c #D5D5D5",
"%	c #F2F2F2",
"....................",
"....................",
"....................",
"....................",
"....................",
"....................",
"....................",
"....................",
"....................",
"......++....++......",
"......@@+..+@@......",
"......#@@++@@#......",
".......#@@@@#.......",
"........$@@$........",
".......+@@@@+.......",
"......+@@##@@+......",
"......@@#..%@@......",
"......##....##......",
"....................",
"....................",
"....................",
"....................",
"....................",
"...................."};
