/* XPM */
static char * hide_active_xpm[] = {
"20 24 5 1",
" 	c None",
".	c #DEDEDE",
"+	c #707070",
"@	c #868686",
"#	c #ECECEC",
"....................",
"....................",
"....................",
"....................",
"....................",
"....................",
"....................",
"....................",
"....................",
"....................",
"....................",
"....................",
"......++++++++......",
"......@@@@@@@@......",
"......########......",
"....................",
"....................",
"....................",
"....................",
"....................",
"....................",
"....................",
"....................",
"...................."};
