/* XPM */
static char * maximize_prelight_xpm[] = {
"20 24 6 1",
" 	c None",
".	c #DEDEDE",
"+	c #434343",
"@	c #595959",
"#	c #EAEAEA",
"$	c #909090",
"....................",
"....................",
"....................",
"....................",
"....................",
"....................",
"....................",
"....................",
"....................",
".........++.........",
".........@@.........",
".........@@.........",
"......+++@@+++......",
"......@@@@@@@@......",
"......###@@###......",
".........@@.........",
".........$$.........",
".........##.........",
"....................",
"....................",
"....................",
"....................",
"....................",
"...................."};
