/* XPM */
static char * shade_active_xpm[] = {
"20 24 12 1",
" 	c None",
".	c #DEDEDE",
"+	c #878787",
"@	c #8E8E8E",
"#	c #848484",
"$	c #7C7C7C",
"%	c #8C8C8C",
"&	c #727272",
"*	c #959595",
"=	c #5E5E5E",
"-	c #909090",
";	c #EAEAEA",
"....................",
"....................",
"....................",
"....................",
"....................",
"....................",
"....................",
"....................",
"....................",
".........+@.........",
"........#$$@........",
".......%&%*&*.......",
"......%=%%%-=-......",
"......;;;%%;;;......",
".........%%.........",
".........%%.........",
".........%%.........",
".........;;.........",
"....................",
"....................",
"....................",
"....................",
"....................",
"...................."};
